 <svg version="1.0" xmlns="http://www.w3.org/2000/svg"  width="300.000000pt" height="279.000000pt" viewBox="0 0 300.000000 279.000000"  preserveAspectRatio="xMidYMid meet">  <g transform="translate(0.000000,279.000000) scale(0.100000,-0.100000)" fill="#000000" stroke="none"> <path d="M1278 2595 c-430 -70 -814 -396 -951 -805 -46 -139 -60 -233 -60 -400 -1 -344 101 -603 331 -842 188 -196 413 -320 660 -363 128 -23 360 -20 485 6 494 100 887 517 956 1013 26 186 7 412 -50 580 -64 191 -163 342 -328 497 -160 151 -319 239 -539 295 -124 32 -368 41 -504 19z m490 -70 c180 -46 315 -113 454 -223 429 -342 561 -944 315 -1437 -57 -115 -109 -188 -207 -289 -165 -171 -355 -279 -587 -331 -132 -30 -342 -34 -473 -9 -495 94 -872 489 -946 994 -52 355 73 726 332 984 170 171 397 289 635 331 130 22 346 14 477 -20z"/> <path d="M1391 2472 l-34 -3 7 -52 c3 -29 6 -62 6 -75 0 -13 4 -20 10 -17 6 3 10 19 10 36 0 37 9 37 42 -3 33 -40 50 -29 19 12 -12 17 -17 30 -12 30 13 0 22 30 16 50 -7 22 -20 26 -64 22z m39 -42 c0 -15 -7 -20 -25 -20 -18 0 -25 5 -25 20 0 15 7 20 25 20 18 0 25 -5 25 -20z"/> <path d="M1500 2405 c0 -60 3 -75 15 -75 12 0 15 15 15 75 0 60 -3 75 -15 75 -12 0 -15 -15 -15 -75z"/> <path d="M1570 2466 c0 -9 7 -16 16 -16 14 0 15 -9 9 -60 -6 -51 -5 -60 9 -60 13 0 16 12 16 61 0 56 2 61 20 56 13 -3 20 0 20 9 0 8 -10 14 -22 14 -13 0 -33 3 -45 6 -17 5 -23 2 -23 -10z"/> <path d="M1712 2423 c5 -20 7 -54 4 -76 -8 -46 13 -48 26 -2 4 15 22 43 40 62 35 36 19 47 -19 11 l-23 -21 -6 31 c-4 18 -12 32 -19 32 -11 0 -11 -8 -3 -37z"/> <path d="M1222 2438 c-22 -22 -14 -86 13 -113 30 -31 40 -31 71 1 28 27 27 56 -2 102 -16 24 -62 30 -82 10z m68 -28 c17 -31 9 -74 -14 -79 -36 -6 -62 59 -34 87 18 18 36 15 48 -8z"/> <path d="M1120 2416 c0 -4 7 -23 15 -43 21 -49 20 -49 -20 -14 -56 48 -69 42 -44 -21 12 -29 24 -62 28 -72 5 -13 10 -15 15 -8 4 6 0 28 -9 48 -8 20 -14 39 -12 40 2 2 19 -12 37 -31 37 -38 65 -47 56 -17 -20 61 -45 117 -55 120 -6 2 -11 1 -11 -2z"/> <path d="M1927 2325 c-27 -56 -47 -71 -47 -35 0 24 -15 26 -24 4 -9 -22 13 -46 38 -42 25 4 84 104 69 119 -5 5 -20 -13 -36 -46z"/> <path d="M990 2350 c0 -21 55 -120 67 -120 18 0 17 2 -17 70 -27 54 -50 77 -50 50z"/> <path d="M921 2321 c-12 -8 -11 -15 3 -50 22 -57 21 -59 -18 -22 -25 24 -38 31 -50 24 -13 -7 -10 -17 23 -67 21 -31 43 -56 47 -54 12 4 7 17 -23 56 -37 49 -21 50 20 1 39 -45 66 -46 43 -1 -7 15 -17 38 -21 52 -5 19 0 15 21 -15 35 -51 33 -49 40 -42 5 5 -62 127 -69 127 -1 0 -8 -4 -16 -9z"/> <path d="M1991 2294 c-23 -29 -28 -83 -9 -102 29 -29 89 -3 106 47 24 68 -53 111 -97 55z m63 0 c22 -9 20 -46 -4 -72 -23 -25 -22 -24 -44 -16 -22 9 -20 46 4 72 23 25 22 24 44 16z"/> <path d="M1318 2265 c-346 -66 -625 -334 -703 -676 -26 -115 -22 -309 9 -430 42 -168 115 -289 253 -419 177 -168 358 -239 606 -240 253 0 451 78 622 245 177 173 261 356 272 595 12 263 -65 475 -241 658 -123 128 -269 215 -431 257 -87 23 -292 28 -387 10z m340 -41 c300 -61 544 -278 642 -572 42 -126 53 -299 25 -433 -64 -319 -307 -573 -630 -660 -111 -30 -307 -30 -416 -1 -294 79 -515 287 -607 572 -140 432 90 899 522 1060 134 51 319 64 464 34z"/> <path d="M1291 2169 c-48 -19 -52 -29 -23 -56 18 -16 23 -26 15 -30 -7 -2 -13 -19 -13 -38 0 -27 5 -35 30 -45 33 -14 38 -27 15 -36 -8 -4 -15 -14 -15 -23 0 -9 -11 -29 -25 -46 -14 -16 -38 -45 -53 -62 -27 -32 -62 -44 -62 -21 0 6 -11 1 -25 -12 -29 -27 -32 -40 -10 -40 9 0 15 -6 13 -12 -5 -28 31 -75 62 -82 17 -3 43 -20 57 -37 25 -29 27 -30 40 -13 7 10 11 26 8 35 -7 21 6 31 25 19 11 -7 11 -11 1 -24 -8 -10 -9 -16 -3 -16 6 0 14 5 17 11 4 6 13 8 21 5 13 -5 18 6 15 27 0 4 3 7 9 7 5 0 10 5 10 10 0 6 -7 10 -16 8 -37 -7 -21 21 23 40 32 14 41 21 26 22 -12 0 -24 8 -27 18 -3 10 -22 25 -41 34 -33 14 -34 14 -24 -3 5 -10 16 -16 23 -13 8 3 19 -3 25 -14 8 -15 5 -24 -14 -42 -14 -13 -25 -32 -25 -42 0 -15 -5 -17 -26 -12 -20 5 -26 2 -31 -14 -6 -23 -24 -23 -50 0 -10 9 -28 19 -40 22 -17 5 -43 49 -43 72 0 2 15 10 33 17 18 8 46 30 63 49 28 32 32 34 52 20 14 -9 22 -11 22 -3 0 6 -6 11 -14 11 -23 0 -13 34 14 47 18 9 20 12 8 13 -19 0 -21 5 -10 33 7 16 10 14 31 -13 25 -35 18 -55 -22 -63 -21 -4 -21 -4 -1 -6 11 0 29 8 39 19 17 19 17 21 0 40 -18 20 -17 20 26 20 36 -1 41 -3 29 -13 -8 -7 -21 -22 -27 -34 -11 -18 -10 -21 1 -17 8 3 16 14 19 25 5 17 8 18 32 7 l26 -12 -23 -13 -23 -12 28 -1 c16 0 27 -6 27 -13 0 -21 -12 -28 -27 -16 -7 7 -13 7 -13 2 0 -5 11 -15 25 -21 14 -6 25 -16 25 -22 0 -14 86 -52 117 -52 12 0 21 -4 18 -7 -7 -12 14 -37 23 -25 4 6 17 7 32 3 14 -4 19 -7 13 -8 -7 -1 -13 -6 -13 -12 0 -7 10 -9 26 -5 15 4 23 3 20 -3 -8 -12 -85 -25 -94 -16 -3 3 0 10 8 15 8 6 10 10 4 10 -19 0 -47 -27 -40 -38 9 -15 86 -16 86 -1 0 8 4 8 14 -1 12 -9 18 -7 33 9 23 27 35 27 31 -1 -2 -14 -15 -29 -35 -38 -41 -19 -37 -36 8 -32 19 1 41 -2 49 -8 25 -17 -6 -28 -69 -25 -80 3 -83 4 -76 14 3 5 0 13 -6 17 -7 4 -9 3 -6 -3 4 -6 0 -16 -8 -23 -8 -7 -15 -18 -15 -26 0 -7 -9 -18 -20 -24 -11 -6 -20 -20 -20 -30 0 -11 -4 -20 -10 -20 -5 0 -7 -7 -4 -15 5 -11 9 -12 19 -2 7 7 11 16 8 20 -7 11 67 79 81 74 6 -2 23 0 39 4 31 9 31 9 15 -26 -9 -21 -18 -25 -57 -27 l-46 -1 44 -4 44 -4 -31 -20 c-18 -10 -32 -24 -32 -29 0 -6 -5 -8 -11 -5 -5 4 -19 -1 -30 -11 -19 -17 -20 -17 -13 2 5 13 -2 10 -23 -12 -17 -18 -37 -34 -44 -37 -11 -4 -11 -6 -1 -6 21 -1 3 -21 -19 -21 -10 0 -19 -4 -19 -10 0 -20 27 -9 69 26 23 20 44 34 47 31 3 -3 -14 -20 -37 -38 -23 -19 -55 -46 -71 -61 -16 -16 -40 -28 -54 -28 -13 0 -24 -5 -24 -10 0 -6 6 -10 13 -9 49 6 70 -28 33 -56 -11 -9 -15 -13 -8 -9 10 5 12 -2 6 -33 -9 -50 -11 -53 -42 -54 l-27 -1 28 -7 28 -6 -30 -29 c-20 -19 -31 -25 -31 -15 0 12 -2 12 -10 -1 -9 -13 -11 -13 -20 0 -15 23 -12 33 9 27 19 -5 19 -4 1 29 -19 33 -19 33 2 36 12 2 24 10 26 18 4 13 3 13 -11 2 -24 -20 -57 -5 -73 34 -18 44 -18 44 14 45 l27 1 -31 9 c-56 16 -48 90 10 105 14 3 27 12 30 20 3 8 12 14 21 14 8 0 15 7 15 15 0 22 39 53 60 48 11 -3 25 -18 32 -33 7 -16 17 -26 25 -23 17 7 -26 62 -49 62 -9 1 -20 6 -23 11 -9 14 -25 12 -25 -3 0 -19 -67 -87 -85 -87 -8 0 -15 -4 -15 -9 0 -5 -11 -12 -25 -15 -17 -4 -25 -13 -25 -28 0 -43 -17 -2 -28 71 -12 70 -11 75 8 96 11 12 20 27 20 33 0 15 5 15 53 1 20 -5 42 -7 49 -3 12 8 117 9 124 1 3 -3 7 -18 8 -33 2 -16 4 -32 5 -36 0 -5 6 -8 11 -8 7 0 7 7 2 18 -5 9 -7 29 -6 45 2 15 -1 28 -7 28 -36 5 -136 4 -144 -1 -18 -13 -76 10 -85 33 -7 19 -9 17 -15 -20 -4 -24 -11 -40 -15 -38 -5 3 -11 -1 -13 -7 -4 -8 -6 -7 -6 4 -1 9 -5 19 -9 22 -10 6 -6 -97 8 -164 6 -30 11 -61 12 -67 1 -7 5 -13 9 -13 5 0 13 -19 20 -42 6 -24 20 -61 30 -83 10 -22 26 -63 35 -92 8 -28 25 -60 35 -69 19 -18 21 -17 55 20 18 20 34 41 34 47 0 5 7 9 15 9 11 0 15 10 14 38 -1 20 3 48 8 61 5 14 6 42 2 65 -9 48 -3 66 22 66 10 0 19 4 19 9 0 5 11 12 25 15 14 4 25 11 25 16 0 14 100 109 133 126 26 14 31 24 28 51 -2 17 19 27 52 25 32 -3 31 -9 15 83 -2 11 -9 24 -16 28 -11 7 -10 12 3 27 15 17 15 19 -5 25 -17 5 -19 10 -9 21 8 9 16 11 29 4 9 -5 20 -6 24 -3 3 3 6 -4 6 -16 0 -21 3 -22 45 -15 34 5 45 3 45 -7 0 -10 3 -10 12 -1 10 10 8 16 -6 30 -11 9 -16 11 -12 5 5 -8 1 -13 -9 -13 -9 0 -14 4 -10 9 3 5 -7 12 -22 14 -16 2 -4 5 26 6 72 1 58 13 -21 17 -35 1 -69 3 -77 3 -7 1 -11 7 -8 14 7 19 -8 41 -23 32 -7 -4 -10 -19 -6 -36 5 -29 4 -30 -36 -32 -27 -1 -88 16 -88 24 0 5 -14 9 -31 9 -37 0 -129 49 -129 69 0 8 7 22 15 31 14 15 12 18 -12 31 -16 8 -36 23 -46 33 -14 15 -28 19 -63 17 -43 -2 -45 -1 -42 21 2 19 8 23 32 21 16 -1 32 -6 35 -11 6 -10 50 -11 53 -2 0 3 -2 15 -6 28 -6 17 -2 28 13 41 25 22 27 56 5 65 -9 3 -29 0 -45 -8 -26 -13 -30 -12 -51 8 -42 42 -71 55 -97 45z m84 -63 c25 -14 53 -22 61 -19 17 6 18 -4 3 -46 -10 -30 -15 -32 -43 -27 -17 3 -37 2 -45 -3 -22 -14 -38 9 -43 67 -6 61 0 63 67 28z m418 -470 c4 -10 -4 -15 -29 -18 -19 -2 -34 -3 -34 -1 0 2 50 31 56 33 1 0 4 -6 7 -14z"/> <path d="M1348 2063 c17 -2 47 -2 65 0 17 2 3 4 -33 4 -36 0 -50 -2 -32 -4z"/> <path d="M2040 1882 c0 -6 -8 -8 -17 -6 -11 3 -33 -9 -56 -31 -20 -19 -44 -35 -52 -35 -12 0 -12 -3 3 -18 20 -21 57 -17 83 9 15 15 16 19 5 19 -8 0 -18 -4 -21 -10 -3 -5 -11 -10 -18 -10 -8 0 -8 3 1 12 12 12 92 21 92 11 0 -3 -18 -23 -40 -44 -22 -22 -40 -42 -39 -46 3 -21 -15 -53 -30 -53 -9 0 -24 -7 -34 -14 -16 -12 -17 -18 -7 -37 12 -22 12 -22 27 9 13 27 19 30 48 25 33 -5 33 -5 44 47 6 29 9 55 7 58 -9 8 44 44 57 39 7 -3 13 5 13 19 1 17 -3 24 -16 24 -11 0 -17 7 -16 17 0 10 -7 19 -16 21 -10 2 -18 -1 -18 -6z m-19 -125 c-6 -8 -8 -17 -4 -20 3 -4 -1 -7 -10 -7 -15 0 -15 3 -5 20 7 11 17 20 22 20 4 0 3 -6 -3 -13z"/> <path d="M1380 1843 c0 -17 6 -23 23 -23 16 0 18 3 8 9 -7 5 -17 15 -22 22 -6 10 -9 8 -9 -8z"/> <path d="M1253 1753 c9 -2 25 -2 35 0 9 3 1 5 -18 5 -19 0 -27 -2 -17 -5z"/> <path d="M1498 1753 c12 -2 32 -2 45 0 12 2 2 4 -23 4 -25 0 -35 -2 -22 -4z"/> <path d="M1442 1705 c-24 -35 -23 -55 4 -55 11 0 12 4 5 18 -10 18 0 19 89 8 14 -2 31 -4 38 -5 6 0 12 -10 12 -22 0 -21 21 -22 27 -2 6 16 -71 49 -123 52 -6 1 -15 10 -20 21 -8 18 -11 17 -32 -15z"/> <path d="M1065 1656 c-15 -11 -15 -13 3 -29 18 -16 19 -16 18 5 -1 18 5 23 26 23 40 1 43 11 3 12 -19 1 -41 -4 -50 -11z"/> <path d="M1555 1620 c6 -18 2 -27 -16 -41 -31 -23 -14 -42 32 -36 l34 4 -37 1 c-21 1 -38 4 -38 7 0 3 12 16 27 29 26 23 26 24 9 42 -18 18 -18 17 -11 -6z"/> <path d="M1967 1623 c4 -10 2 -14 -4 -10 -7 5 -9 0 -6 -13 6 -22 30 -21 25 1 -2 7 5 19 14 26 16 12 15 13 -9 13 -20 0 -25 -4 -20 -17z"/> <path d="M1123 1606 c1 -6 -8 -11 -20 -10 -32 1 -28 -17 12 -56 33 -32 35 -33 60 -16 14 9 25 23 25 30 0 8 8 17 18 19 15 4 15 5 -1 6 -11 1 -21 -7 -24 -19 -8 -30 -39 -34 -66 -8 l-23 23 25 21 c18 15 20 21 8 21 -9 0 -15 -5 -14 -11z"/> <path d="M1160 1610 c0 -5 9 -10 20 -10 11 0 20 5 20 10 0 6 -9 10 -20 10 -11 0 -20 -4 -20 -10z"/> <path d="M1423 1603 c15 -2 37 -2 50 0 12 2 0 4 -28 4 -27 0 -38 -2 -22 -4z"/> <path d="M1288 1453 c12 -2 32 -2 45 0 12 2 2 4 -23 4 -25 0 -35 -2 -22 -4z"/> <path d="M1443 1393 c9 -2 25 -2 35 0 9 3 1 5 -18 5 -19 0 -27 -2 -17 -5z"/> <path d="M1387 1373 c-10 -9 -9 -53 2 -53 6 0 11 60 5 60 0 0 -4 -3 -7 -7z"/> <path d="M1430 1319 c-19 -10 -31 -18 -27 -19 12 0 77 28 77 34 0 9 -12 5 -50 -15z"/> <path d="M1360 1252 c0 -15 16 -30 35 -34 11 -2 19 -11 19 -21 -2 -17 7 -22 19 -11 10 10 -12 44 -28 44 -8 0 -15 4 -15 9 0 5 -7 11 -15 15 -8 3 -15 2 -15 -2z"/> <path d="M1050 940 c0 -5 9 -10 20 -10 23 0 27 -18 5 -26 -8 -4 -15 -10 -15 -15 0 -5 7 -9 15 -9 8 0 15 -7 15 -15 0 -22 -27 -18 -44 7 -21 30 -33 15 -12 -17 21 -31 65 -35 73 -5 8 30 23 24 23 -10 0 -16 5 -30 10 -30 6 0 10 27 10 61 0 60 0 60 28 57 20 -2 28 -9 30 -26 3 -20 0 -23 -17 -17 -28 8 -26 -1 5 -42 18 -24 33 -33 55 -33 16 0 29 4 29 9 0 5 -8 7 -17 5 -10 -3 -27 1 -38 9 -16 12 -17 19 -9 38 l11 24 7 -22 c5 -16 15 -23 32 -23 17 0 24 -5 24 -20 0 -11 5 -20 10 -20 6 0 10 27 10 60 0 47 3 60 15 60 11 0 15 -11 15 -40 0 -70 62 -67 68 4 3 36 4 36 48 36 24 0 44 -4 44 -10 0 -5 -14 -10 -31 -10 -23 0 -30 -4 -27 -16 3 -17 18 -28 52 -38 15 -5 16 -9 6 -21 -17 -21 -27 -19 -55 11 -17 18 -25 22 -25 12 0 -43 80 -65 100 -27 14 26 -3 49 -36 49 -13 0 -24 5 -24 10 0 6 14 10 30 10 20 0 30 5 30 15 0 8 5 15 10 15 6 0 10 5 10 10 0 6 -75 10 -205 10 l-205 0 0 -30 c0 -21 -5 -30 -16 -30 -11 0 -14 5 -10 16 4 9 1 23 -5 30 -13 16 -49 19 -49 4z m240 -19 c0 -6 -8 -9 -17 -9 -10 0 -24 -1 -32 -3 -7 -2 -16 2 -18 9 -3 8 7 12 31 12 20 0 36 -4 36 -9z m100 -26 c0 -24 -5 -35 -15 -35 -10 0 -15 11 -15 35 0 24 5 35 15 35 10 0 15 -11 15 -35z m-105 -15 c0 -22 -29 -18 -33 3 -3 14 1 18 15 15 10 -2 18 -10 18 -18z"/> <path d="M1597 944 c-10 -11 -9 -44 2 -44 5 0 12 8 14 18 3 11 5 7 6 -10 0 -15 -3 -29 -9 -33 -13 -8 -1 -35 16 -35 8 0 14 5 14 10 0 6 9 10 20 10 15 0 20 -7 20 -25 0 -14 5 -25 10 -25 6 0 10 27 10 60 0 47 3 60 15 60 12 0 15 -13 15 -60 0 -33 4 -60 10 -60 6 0 10 27 10 60 0 60 0 60 30 60 26 0 30 -4 30 -26 0 -21 -4 -24 -20 -19 -11 3 -20 2 -20 -2 0 -16 58 -78 66 -71 4 5 -1 17 -11 28 -14 16 -16 23 -7 32 7 7 12 22 12 35 0 21 4 23 50 23 37 0 50 -4 50 -14 0 -9 -12 -16 -32 -18 -25 -2 -34 -8 -36 -24 -3 -23 32 -73 44 -62 4 5 -1 17 -11 28 -21 23 -13 50 15 50 17 0 20 -6 20 -40 0 -22 5 -40 10 -40 6 0 10 27 10 60 0 33 4 60 10 60 6 0 10 5 10 10 0 6 -55 10 -145 10 l-145 0 0 -35 c0 -28 -4 -35 -19 -35 -15 0 -21 8 -23 32 -3 31 -25 48 -41 32z"/> <path d="M1238 693 c5 -59 10 -63 11 -10 1 26 -3 47 -7 47 -4 0 -6 -17 -4 -37z"/> <path d="M1570 715 c0 -9 6 -12 15 -9 8 4 15 2 15 -4 0 -5 -7 -15 -15 -22 -21 -18 -19 -40 5 -40 11 0 20 5 20 10 0 6 -5 10 -12 10 -9 0 -9 3 0 12 20 20 15 58 -8 58 -11 0 -20 -7 -20 -15z"/> <path d="M1637 723 c-15 -15 -4 -83 14 -83 15 0 31 41 25 66 -6 23 -25 31 -39 17z"/> <path d="M1697 723 c-13 -12 -7 -25 8 -19 19 7 19 -3 0 -28 -21 -28 -19 -36 10 -36 14 0 25 5 25 10 0 6 -7 10 -17 10 -15 0 -14 2 2 20 9 10 15 26 12 35 -7 15 -28 20 -40 8z"/> <path d="M1767 703 c-21 -39 -21 -43 -2 -43 8 0 15 -6 15 -12 1 -9 4 -8 10 2 4 9 5 31 1 50 l-7 35 -17 -32z"/> <path d="M1174 698 c-4 -6 1 -17 10 -24 16 -12 16 -13 -1 -17 -17 -4 -17 -4 0 -12 11 -5 23 -3 30 4 9 10 8 16 -7 27 -18 13 -18 14 -2 14 9 0 14 5 11 10 -8 14 -32 13 -41 -2z"/> <path d="M1270 674 c0 -39 14 -38 23 1 4 18 5 18 6 -2 0 -12 6 -25 12 -28 7 -5 9 5 7 26 -2 26 -8 35 -25 37 -20 3 -23 -1 -23 -34z"/> <path d="M1341 691 c-12 -22 9 -58 27 -47 17 10 15 26 -3 20 -9 -4 -15 0 -15 10 0 9 7 16 15 16 8 0 15 5 15 10 0 17 -29 11 -39 -9z"/> <path d="M1407 704 c-11 -11 -8 -52 3 -59 6 -3 15 -3 22 1 8 5 6 10 -8 15 -17 7 -18 8 -1 8 12 1 17 7 15 18 -3 18 -20 27 -31 17z"/> <path d="M1495 681 c-7 -12 12 -24 25 -16 11 7 4 25 -10 25 -5 0 -11 -4 -15 -9z"/> <path d="M2107 2191 c-29 -37 -43 -62 -36 -66 5 -4 11 -5 12 -4 1 2 22 28 46 57 28 34 40 57 34 63 -6 6 -27 -12 -56 -50z"/> <path d="M2156 2149 c-31 -33 -45 -54 -38 -61 6 -6 20 4 41 29 35 42 38 36 16 -28 -9 -23 -12 -46 -7 -51 4 -4 32 16 61 46 32 32 49 56 42 60 -6 4 -24 -8 -40 -26 -34 -37 -38 -30 -17 30 13 37 12 52 -4 52 -3 0 -28 -23 -54 -51z"/> <path d="M710 2150 c-14 -14 -19 -28 -15 -43 9 -29 61 -77 84 -77 39 0 68 66 34 78 -8 2 -13 -6 -13 -22 0 -33 -31 -35 -61 -5 -25 25 -21 53 9 57 13 2 21 9 19 15 -7 21 -35 19 -57 -3z"/> <path d="M2290 2092 c0 -4 5 -13 11 -19 7 -7 -3 -22 -36 -51 -27 -24 -42 -43 -35 -47 6 -4 29 9 50 29 42 38 55 43 65 26 4 -6 11 -8 16 -5 12 8 -39 75 -57 75 -8 0 -14 -4 -14 -8z"/> <path d="M601 2019 c-13 -17 -21 -32 -19 -33 1 -1 29 -19 61 -41 55 -37 58 -38 72 -19 35 45 25 101 -16 91 -11 -3 -19 2 -22 14 -8 30 -50 24 -76 -12z m59 -8 c0 -24 -18 -37 -32 -23 -8 8 -7 16 2 27 17 21 30 19 30 -4z m57 -27 c2 -5 -3 -18 -11 -29 -12 -16 -16 -17 -30 -6 -15 13 -15 15 1 33 17 19 34 20 40 2z"/> <path d="M2375 1898 c-72 -36 -69 -34 -60 -47 4 -8 13 -6 28 4 28 20 34 19 42 -5 3 -11 13 -20 20 -20 12 0 12 5 3 26 -10 21 -9 27 3 34 10 7 18 1 30 -22 21 -41 33 -20 14 26 -8 20 -16 36 -18 36 -1 -1 -29 -15 -62 -32z"/> <path d="M536 1904 c-24 -23 -19 -60 10 -83 72 -56 157 7 95 70 -33 33 -80 39 -105 13z m68 -16 c27 -11 42 -40 31 -58 -10 -17 -50 -11 -73 10 -25 24 -27 31 -10 48 15 15 21 15 52 0z"/> <path d="M2397 1770 c-34 -27 -35 -64 -2 -86 31 -20 75 -11 106 22 22 23 23 27 8 52 -20 36 -74 42 -112 12z m92 -24 c4 -25 -24 -46 -61 -46 -39 0 -48 27 -18 52 29 24 73 20 79 -6z"/> <path d="M452 1688 c-7 -28 -8 -46 -1 -53 6 -6 12 -2 15 12 6 20 8 20 57 7 63 -17 67 -17 67 -4 0 12 -5 14 -68 30 -36 9 -42 14 -37 31 4 13 2 19 -8 19 -9 0 -19 -17 -25 -42z"/> <path d="M2461 1636 c-62 -13 -88 -42 -27 -31 45 9 47 -6 7 -36 -18 -13 -27 -27 -24 -36 4 -11 11 -9 32 11 19 19 30 23 38 15 6 -6 21 -9 34 -7 26 3 35 32 25 74 -7 27 -8 27 -85 10z m69 -42 c0 -32 -29 -30 -41 4 -7 19 -5 22 16 22 20 0 25 -5 25 -26z"/> <path d="M444 1582 c-35 -23 -20 -82 21 -82 17 0 29 9 40 30 17 33 32 38 42 14 4 -10 -1 -22 -12 -30 -23 -17 -11 -33 13 -18 11 7 17 24 17 45 0 31 -3 34 -32 37 -27 3 -34 -2 -48 -27 -18 -35 -35 -40 -35 -11 0 11 5 20 10 20 6 0 10 7 10 15 0 16 -9 19 -26 7z"/> <path d="M2465 1493 c-22 -5 -45 -30 -45 -49 0 -36 64 -55 128 -38 43 12 22 26 -35 22 -53 -3 -58 -1 -61 18 -3 20 3 23 57 29 34 4 61 11 61 16 0 9 -69 10 -105 2z"/> <path d="M410 1461 c0 -8 121 -41 151 -41 30 0 -10 18 -73 34 -78 19 -78 19 -78 7z"/> <path d="M426 1368 c-20 -29 -20 -34 4 -58 41 -41 134 -14 128 37 -3 28 -32 52 -45 39 -4 -4 0 -12 10 -17 41 -24 -6 -66 -59 -53 -23 6 -36 44 -14 44 6 0 10 7 10 15 0 22 -17 18 -34 -7z"/> <path d="M2430 1353 c0 -6 24 -15 53 -20 l52 -10 -46 -2 c-27 0 -52 -7 -59 -15 -9 -12 -4 -17 32 -26 66 -17 68 -20 11 -16 -40 2 -53 0 -53 -10 0 -10 15 -14 53 -14 28 0 62 -3 75 -6 18 -5 22 -2 22 14 0 17 -10 24 -42 32 -24 6 -47 12 -53 14 -5 2 14 6 43 10 42 6 52 12 52 27 0 15 -7 19 -32 19 -18 0 -50 3 -70 6 -23 4 -38 3 -38 -3z"/> <path d="M514 1250 c-13 -5 -24 -21 -27 -39 -4 -18 -13 -31 -22 -31 -18 0 -20 21 -3 38 15 15 4 26 -17 19 -20 -8 -20 -63 1 -75 27 -15 53 -2 62 32 9 35 42 50 42 19 0 -11 -5 -24 -12 -31 -6 -6 -8 -15 -5 -19 4 -4 17 2 28 14 36 36 1 91 -47 73z"/> <path d="M790 619 c0 -6 8 -9 20 -6 11 3 23 1 26 -4 3 -5 -4 -9 -15 -9 -11 0 -23 -4 -26 -10 -4 -6 5 -10 19 -10 29 0 33 -12 11 -30 -8 -7 -15 -18 -15 -24 1 -6 16 7 35 29 28 32 35 37 40 23 4 -10 -3 -29 -16 -47 -12 -17 -20 -33 -17 -36 3 -4 16 10 28 29 12 20 23 36 26 36 2 0 18 -9 36 -20 l33 -20 -32 0 c-32 0 -46 -21 -23 -35 6 -3 10 1 10 9 0 9 7 16 15 16 8 0 15 -5 15 -10 0 -6 -7 -13 -15 -16 -8 -4 -15 -16 -15 -28 1 -16 6 -12 26 20 l24 41 37 -16 36 -16 -32 -3 c-30 -3 -42 -24 -21 -37 6 -3 10 -15 10 -26 0 -32 16 -21 30 21 9 28 18 39 28 35 7 -3 15 -5 16 -5 1 0 0 -17 -2 -38 -3 -26 1 -42 12 -51 19 -16 56 -5 56 17 0 13 -2 14 -9 4 -16 -25 -46 -9 -49 26 -4 37 1 38 65 14 26 -11 56 -22 65 -25 11 -4 15 -12 12 -21 -5 -13 -8 -14 -20 -1 -8 8 -21 12 -29 9 -20 -8 -19 -34 0 -34 8 0 15 5 15 11 0 5 5 7 11 3 6 -3 9 -19 5 -35 -3 -16 -2 -29 3 -29 5 0 11 18 15 39 7 44 16 54 40 45 13 -5 14 -9 4 -21 -10 -12 -9 -14 7 -12 11 2 20 -1 20 -6 0 -6 -10 -10 -22 -10 -31 1 -29 -5 12 -38 33 -26 52 -24 20 3 -13 11 -13 14 2 26 16 11 16 16 5 34 -12 20 -12 21 8 15 37 -12 6 31 -31 44 -39 13 -42 14 -34 1 3 -5 20 -14 38 -19 21 -6 25 -10 12 -10 -24 -1 -146 33 -172 48 -17 10 -16 10 4 11 12 0 25 5 28 10 8 13 -8 13 -38 -1 -21 -9 -38 -4 -122 38 -97 47 -127 73 -86 73 11 0 27 -10 35 -22 9 -12 16 -17 16 -10 0 14 -36 52 -49 52 -5 0 -16 -7 -25 -15 -13 -14 -16 -13 -25 2 -9 17 -10 17 -17 -2 -8 -19 -8 -18 -14 5 -4 18 -14 26 -33 28 -16 2 -27 -2 -27 -9z m243 -169 c-3 -11 -9 -17 -14 -14 -14 8 -10 34 5 34 9 0 12 -7 9 -20z"/> <path d="M2095 596 c-17 -13 -18 -15 -3 -16 24 0 43 -36 23 -44 -10 -3 -15 1 -15 13 0 10 -7 22 -15 25 -14 5 -52 -10 -65 -25 -10 -13 -98 -53 -185 -86 -60 -22 -77 -32 -50 -27 l39 6 -23 -20 c-26 -20 -22 -42 8 -42 9 0 23 -6 30 -12 14 -13 13 -7 -5 60 -9 33 20 29 35 -5 l13 -28 13 25 13 25 12 -29 c13 -36 19 -31 13 12 -6 36 -18 40 -45 15 -17 -15 -18 -15 -18 5 0 12 6 22 13 22 6 0 33 11 60 25 26 14 47 23 47 19 0 -4 7 -1 15 6 18 15 31 7 51 -32 8 -16 18 -27 21 -24 3 3 -5 21 -17 41 -19 31 -20 39 -9 46 26 16 41 11 34 -12 -7 -20 -4 -21 22 -16 17 3 35 1 42 -6 18 -18 13 2 -8 31 -10 15 -20 35 -22 45 -4 16 -6 17 -24 3z m-265 -191 c0 -8 -4 -15 -9 -15 -13 0 -22 16 -14 24 11 11 23 6 23 -9z"/> <path d="M1973 494 c-37 -16 -40 -25 -18 -44 12 -10 19 -10 27 -2 7 7 8 15 4 19 -4 4 -11 1 -16 -7 -8 -13 -10 -12 -10 3 0 9 4 17 9 17 5 0 16 2 23 5 9 4 19 -5 27 -21 6 -15 14 -24 17 -21 5 4 -23 68 -29 66 -1 0 -17 -7 -34 -15z"/> <path d="M1105 431 c-3 -5 0 -13 7 -17 6 -4 14 -2 16 4 2 7 9 9 14 6 7 -4 8 -2 4 4 -9 14 -33 16 -41 3z"/> <path d="M1625 410 c-16 -4 -73 -8 -125 -9 -94 -1 -95 -2 -71 -20 22 -17 22 -49 0 -36 -5 4 -9 2 -9 -3 0 -18 29 -21 39 -4 12 21 27 8 34 -28 2 -14 5 -1 6 28 l1 53 33 -18 c25 -13 28 -18 14 -21 -25 -5 -15 -27 12 -27 12 0 26 -7 31 -15 7 -10 8 0 4 33 -7 46 -6 47 20 47 26 0 35 -13 16 -25 -16 -10 -1 -25 23 -25 13 0 17 3 11 8 -18 12 -24 52 -8 52 8 0 15 -11 15 -25 2 -37 3 -43 12 -51 4 -4 6 16 5 44 -3 56 -5 57 -63 42z m-135 -36 c0 -12 -4 -12 -20 -4 -11 6 -20 12 -20 13 0 2 9 3 20 4 12 1 20 -4 20 -13z m90 -11 c0 -14 -1 -24 -3 -22 -1 2 -11 14 -21 27 -19 22 -19 22 2 22 17 0 22 -6 22 -27z"/> </g> </svg> 